<svg xmlns="http://www.svg.org/2000/svg" viewBox="0 0 100 100" fill="gray">
    <g transform="translate(50, 50)">
        <path d="M 0,-8 C -8,-25 -8,-45 0,-45 C 8,-45 8,-25 0,-8 Z" />
        <path d="M 0,-8 C -8,-25 -8,-45 0,-45 C 8,-45 8,-25 0,-8 Z" transform="rotate(30)" />
        <path d="M 0,-8 C -8,-25 -8,-45 0,-45 C 8,-45 8,-25 0,-8 Z" transform="rotate(60)" />
        <path d="M 0,-8 C -8,-25 -8,-45 0,-45 C 8,-45 8,-25 0,-8 Z" transform="rotate(90)" />
        <path d="M 0,-8 C -8,-25 -8,-45 0,-45 C 8,-45 8,-25 0,-8 Z" transform="rotate(120)" />
        <path d="M 0,-8 C -8,-25 -8,-45 0,-45 C 8,-45 8,-25 0,-8 Z" transform="rotate(150)" />
        <path d="M 0,-8 C -8,-25 -8,-45 0,-45 C 8,-45 8,-25 0,-8 Z" transform="rotate(180)" />
        <path d="M 0,-8 C -8,-25 -8,-45 0,-45 C 8,-45 8,-25 0,-8 Z" transform="rotate(210)" />
        <path d="M 0,-8 C -8,-25 -8,-45 0,-45 C 8,-45 8,-25 0,-8 Z" transform="rotate(240)" />
        <path d="M 0,-8 C -8,-25 -8,-45 0,-45 C 8,-45 8,-25 0,-8 Z" transform="rotate(270)" />
        <path d="M 0,-8 C -8,-25 -8,-45 0,-45 C 8,-45 8,-25 0,-8 Z" transform="rotate(300)" />
        <path d="M 0,-8 C -8,-25 -8,-45 0,-45 C 8,-45 8,-25 0,-8 Z" transform="rotate(330)" />
    </g>
</svg>
