<svg xmlns="http://www.svg.org/2000/svg" viewBox="0 0 100 100">
    <g transform="translate(50, 50)">
        <path d="M 0,-8 C -8,-25 -8,-45 0,-45 C 8,-45 8,-25 0,-8 Z" transform="rotate(0)" fill="white"/>
        <path d="M 0,-8 C -8,-25 -8,-45 0,-45 C 8,-45 8,-25 0,-8 Z" transform="rotate(30)" fill="white"/>
        <path d="M 0,-8 C -8,-25 -8,-45 0,-45 C 8,-45 8,-25 0,-8 Z" transform="rotate(60)" fill="white"/>
        <path d="M 0,-8 C -8,-25 -8,-45 0,-45 C 8,-45 8,-25 0,-8 Z" transform="rotate(90)" fill="white"/>
        <path d="M 0,-8 C -8,-25 -8,-45 0,-45 C 8,-45 8,-25 0,-8 Z" transform="rotate(120)" fill="white"/>
        <path d="M 0,-8 C -8,-25 -8,-45 0,-45 C 8,-45 8,-25 0,-8 Z" transform="rotate(150)" fill="white"/>
        <path d="M 0,-8 C -8,-25 -8,-45 0,-45 C 8,-45 8,-25 0,-8 Z" transform="rotate(180)" fill="white"/>
        <path d="M 0,-8 C -8,-25 -8,-45 0,-45 C 8,-45 8,-25 0,-8 Z" transform="rotate(210)" fill="white"/>
        <path d="M 0,-8 C -8,-25 -8,-45 0,-45 C 8,-45 8,-25 0,-8 Z" transform="rotate(240)" fill="white"/>
        <path d="M 0,-8 C -8,-25 -8,-45 0,-45 C 8,-45 8,-25 0,-8 Z" transform="rotate(270)" fill="white"/>
        <path d="M 0,-8 C -8,-25 -8,-45 0,-45 C 8,-45 8,-25 0,-8 Z" transform="rotate(300)" fill="white"/>
        <path d="M 0,-8 C -8,-25 -8,-45 0,-45 C 8,-45 8,-25 0,-8 Z" transform="rotate(330)" fill="white"/>
    </g>
</svg>
